HIERARCHY
ROOT SpineBase
{
  OFFSET 0.000000 0.000000 0.000000
  CHANNELS 6 Xposition Yposition Zposition Zrotation Xrotation Yrotation
  JOINT SpineMid
  {
    OFFSET 0.000000 31.773243 0.000000
    CHANNELS 3 Zrotation Xrotation Yrotation
    JOINT SpineShoulder
    {
      OFFSET 0.146820 23.570296 -0.690383
      CHANNELS 3 Zrotation Xrotation Yrotation
      JOINT Neck
      {
        OFFSET 0.099295 7.790313 -0.535385
        CHANNELS 3 Zrotation Xrotation Yrotation
        JOINT Head
        {
          OFFSET 4.029039 13.326841 2.177259
          CHANNELS 3 Zrotation Xrotation Yrotation
          End Site
          {
            OFFSET 0 0 0
          }
        }
      }
      JOINT ShoulderLeft
      {
        OFFSET -10.845274 -3.990075 -12.250421
        CHANNELS 3 Zrotation Xrotation Yrotation
        JOINT ElbowLeft
        {
          OFFSET -6.762339 -27.782718 -6.354389
          CHANNELS 3 Zrotation Xrotation Yrotation
          JOINT WristLeft
          {
            OFFSET 2.542032 -23.312638 -4.500460
            CHANNELS 3 Zrotation Xrotation Yrotation
            JOINT HandLeft
            {
              OFFSET 0.047155 -6.085320 1.900793
              CHANNELS 3 Zrotation Xrotation Yrotation
              JOINT HandTipLeft
              {
                OFFSET 0.896253 -7.392948 -0.024264
                CHANNELS 3 Zrotation Xrotation Yrotation
                End Site
                {
                  OFFSET 0 0 0
                }
              }
              JOINT ThumbLeft
              {
                OFFSET -3.523237 0.647043 -2.132390
                CHANNELS 3 Zrotation Xrotation Yrotation
                End Site
                {
                  OFFSET 0 0 0
                }
              }
            }
          }
        }
      }
      JOINT ShoulderRight
      {
        OFFSET 12.788729 -5.268427 9.550050
        CHANNELS 3 Zrotation Xrotation Yrotation
        JOINT ElbowRight
        {
          OFFSET 3.586732 -30.451016 8.915379
          CHANNELS 3 Zrotation Xrotation Yrotation
          JOINT WristRight
          {
            OFFSET 0.225311 -23.648773 -1.303244
            CHANNELS 3 Zrotation Xrotation Yrotation
            JOINT HandRight
            {
              OFFSET 0.243355 -7.521295 3.233783
              CHANNELS 3 Zrotation Xrotation Yrotation
              JOINT HandTipRight
              {
                OFFSET -0.008311 -6.536435 0.183596
                CHANNELS 3 Zrotation Xrotation Yrotation
                End Site
                {
                  OFFSET 0 0 0
                }
              }
              JOINT ThumbRight
              {
                OFFSET 2.062025 -0.608655 -3.267045
                CHANNELS 3 Zrotation Xrotation Yrotation
                End Site
                {
                  OFFSET 0 0 0
                }
              }
            }
          }
        }
      }
    }
  }
  JOINT HipLeft
  {
    OFFSET -4.842285 1.470911 -7.591819
    CHANNELS 3 Zrotation Xrotation Yrotation
    JOINT KneeLeft
    {
      OFFSET -11.886276 -35.549666 -2.970760
      CHANNELS 3 Zrotation Xrotation Yrotation
      JOINT AnkleLeft
      {
        OFFSET -9.038791 -38.912202 8.301887
        CHANNELS 3 Zrotation Xrotation Yrotation
        JOINT FootLeft
        {
          OFFSET 0.718553 -7.906186 -6.668946
          CHANNELS 3 Zrotation Xrotation Yrotation
          End Site
          {
            OFFSET 0 0 0
          }
        }
      }
    }
  }
  JOINT HipRight
  {
    OFFSET 5.686267 -0.039718 0.572846
    CHANNELS 3 Zrotation Xrotation Yrotation
    JOINT KneeRight
    {
      OFFSET -6.425945 -39.373009 6.361985
      CHANNELS 3 Zrotation Xrotation Yrotation
      JOINT AnkleRight
      {
        OFFSET -7.824922 -36.740078 13.546425
        CHANNELS 3 Zrotation Xrotation Yrotation
        JOINT FootRight
        {
          OFFSET 3.493944 -7.920823 -5.061300
          CHANNELS 3 Zrotation Xrotation Yrotation
          End Site
          {
            OFFSET 0 0 0
          }
        }
      }
    }
  }
}
MOTION
Frames: 5
Frame Time: 0.033333
-41.428801 84.430592 345.764424 -0.000000 0.000000 -37.792808 0.000000 0.000000 37.792808 -0.000000 0.000000 0.000000 -0.000000 0.000000 0.000000 0.000000 0.000000 0.000000 -0.000000 0.000000 0.000000 -0.000000 0.000000 0.000000 -0.000000 0.000000 0.000000 -0.000000 0.000000 0.000000 0.000000 0.000000 0.000000 0.000000 0.000000 0.000000 -0.000000 0.000000 0.000000 -0.000000 0.000000 0.000000 -0.000000 0.000000 0.000000 -0.000000 0.000000 0.000000 0.000000 0.000000 0.000000 0.000000 0.000000 0.000000 0.000000 0.000000 37.792808 -0.000000 0.000000 0.000000 -0.000000 0.000000 0.000000 0.000000 0.000000 0.000000 0.000000 0.000000 37.792808 -0.000000 0.000000 0.000000 -0.000000 0.000000 0.000000 0.000000 0.000000 0.000000
-41.388440 84.449364 345.813945 0.051387 -0.077459 -37.946171 -0.088155 0.029484 37.946228 -0.000000 0.000000 0.000000 -0.000000 0.000000 0.000000 0.000000 0.000000 0.000000 -0.000000 0.000000 0.000000 -0.000000 0.000000 0.000000 -0.889446 -0.931830 -0.291561 0.884811 0.936232 0.277098 0.000000 0.000000 0.000000 0.000000 0.000000 0.000000 -0.000000 0.000000 0.000000 -0.000000 0.000000 0.000000 -0.000000 0.000000 0.000000 0.705751 -1.813078 0.033282 0.000000 0.000000 0.000000 0.000000 0.000000 0.000000 -0.088155 0.029484 37.946228 -0.000000 0.000000 0.000000 -0.000000 0.000000 0.000000 0.000000 0.000000 0.000000 -0.088155 0.029484 37.946228 -0.000000 0.000000 0.000000 -1.059075 -0.979365 0.237955 0.000000 0.000000 0.000000
-41.355741 84.465245 345.861559 0.090938 -0.150744 -38.073529 -0.164548 0.062589 38.073739 -0.000000 0.000000 0.000000 -0.000000 0.000000 0.000000 0.000000 0.000000 0.000000 -0.000000 0.000000 0.000000 -0.000000 0.000000 0.000000 -2.200249 -1.580398 -0.726912 2.180882 1.607023 0.665972 0.000000 0.000000 0.000000 0.000000 0.000000 0.000000 -0.000000 0.000000 0.000000 -0.000000 0.000000 0.000000 -0.899740 0.907060 -0.351665 2.227883 -4.148629 0.464805 0.000000 0.000000 0.000000 0.000000 0.000000 0.000000 -0.164548 0.062589 38.073739 -0.000000 0.000000 0.000000 -0.000000 0.000000 0.000000 0.000000 0.000000 0.000000 -0.164548 0.062589 38.073739 -0.000000 0.000000 0.000000 -1.999114 -1.849169 0.437391 0.000000 0.000000 0.000000
-41.330706 84.478235 345.907264 0.118632 -0.219834 -38.175097 -0.229132 0.099494 38.175524 -0.000000 0.000000 0.000000 -0.000000 0.000000 0.000000 0.000000 0.000000 0.000000 0.343995 -0.869786 0.135979 -0.222373 -0.062605 -0.257024 -4.076266 -0.649414 -1.107269 3.922250 1.656556 1.186734 0.000000 0.000000 0.000000 0.000000 0.000000 0.000000 -0.000000 0.000000 0.000000 -0.000000 0.000000 0.000000 -1.149524 1.255749 -0.443255 2.986885 -5.574594 0.632902 0.000000 0.000000 0.000000 0.000000 0.000000 0.000000 -0.229132 0.099494 38.175524 -0.000000 0.000000 0.000000 -0.000000 0.000000 0.000000 0.000000 0.000000 0.000000 -0.229132 0.099494 38.175524 -0.000000 0.000000 0.000000 -2.815464 -2.602262 0.602641 0.000000 0.000000 0.000000
-41.313332 84.488335 345.951062 0.134455 -0.284712 -38.251048 -0.281856 0.140342 38.251727 -0.000000 0.000000 0.000000 -0.000000 0.000000 0.000000 0.000000 0.000000 0.000000 0.409083 -1.059381 0.168582 -0.297990 -0.050853 -0.304867 -6.086778 0.596025 -1.636555 5.954803 0.688063 1.833789 0.000000 0.000000 0.000000 0.000000 0.000000 0.000000 -0.000000 0.000000 0.000000 -0.000000 0.000000 0.000000 -1.275439 1.541435 -0.484336 3.515052 -6.599015 0.744022 0.000000 0.000000 0.000000 0.000000 0.000000 0.000000 -0.281856 0.140342 38.251727 -0.000000 0.000000 0.000000 0.767898 0.022165 -0.645368 0.000000 0.000000 0.000000 -0.281856 0.140342 38.251727 -0.000000 0.000000 0.000000 -3.504339 -3.232915 0.737806 0.000000 0.000000 0.000000
